<svg width="44" height="55" viewBox="0 0 44 55" fill="none" xmlns="http://www.w3.org/2000/svg">
<path fill-rule="evenodd" clip-rule="evenodd" d="M0 0.5C0 0.223858 0.223858 0 0.5 0H29.3019C29.455 0 29.5996 0.0701405 29.6945 0.190345L43.8926 18.1903C43.9622 18.2786 44 18.3876 44 18.5V29.435C44 29.7111 43.7761 29.935 43.5 29.935H35.391V54.4502C35.391 54.4532 35.391 54.4562 35.391 54.4591V54.5C35.391 54.7761 35.1671 55 34.891 55H23.3867C23.2148 55 23.0631 54.9132 22.9731 54.781C22.9687 54.7759 22.9644 54.7706 22.9601 54.7653L8.84117 36.9223C8.70162 36.8336 8.60901 36.6776 8.60901 36.5V36.4598C8.60899 36.4568 8.60899 36.4538 8.60901 36.4508V22.4543L0.108388 11.7459C0.0382014 11.6575 0 11.5479 0 11.435V0.5ZM9.60901 22.2841C9.60904 22.2811 9.60904 22.2782 9.60901 22.2753V11.435C9.60901 11.1589 9.38516 10.935 9.10901 10.935H1V1H28.8019V10.935H20.6478C20.3717 10.935 20.1478 11.1589 20.1478 11.435V36H9.60901V22.2841ZM10.1779 37L16.4726 44.955H26.7361L20.4415 37H10.1779ZM21.1478 36.2811L27.2694 44.0174L27.2694 20.6089L21.1478 12.8727V36.2811ZM21.681 11.935H29.0595L35.3697 19.935L28.0113 19.935L21.681 11.935ZM28.2694 21.8727L28.2694 45.2812L34.391 53.0173V29.6428C34.3815 29.622 34.3734 29.6004 34.3667 29.5782L28.2694 21.8727ZM35.1329 28.935L28.8026 20.935L36.1585 20.935L42.4688 28.935H35.1329ZM43 27.9938V18.6735L36.8784 10.9127V20.233L43 27.9938ZM35.8784 18.9652V9.64494L29.8019 1.94124V11.2615L35.8784 18.9652ZM33.8934 54L27.5274 45.955H17.2639L23.6298 54H33.8934ZM1.5353 11.935L8.60901 20.8459V11.935H1.5353Z" fill="#0F0E10"/>
</svg>
