<svg width="45" height="56" viewBox="0 0 45 56" fill="none" xmlns="http://www.w3.org/2000/svg">
<path fill-rule="evenodd" clip-rule="evenodd" d="M0.5 1C0.5 0.723858 0.723858 0.5 1 0.5H29.8019C29.955 0.5 30.0996 0.57014 30.1945 0.690345L44.3926 18.6903C44.4622 18.7786 44.5 18.8876 44.5 19V29.935C44.5 30.2111 44.2761 30.435 44 30.435H35.891V54.9502C35.891 54.9532 35.891 54.9562 35.891 54.9591V55C35.891 55.2761 35.6671 55.5 35.391 55.5H23.8867C23.7148 55.5 23.5631 55.4132 23.4731 55.281C23.4687 55.2759 23.4644 55.2706 23.4601 55.2653L9.34117 37.4223C9.20162 37.3336 9.10901 37.1776 9.10901 37V36.9598C9.10899 36.9568 9.10899 36.9538 9.10901 36.9508V22.9543L0.608388 12.2459C0.538201 12.1575 0.5 12.0479 0.5 11.935V1ZM10.109 22.7841C10.109 22.7811 10.109 22.7782 10.109 22.7753V11.935C10.109 11.6589 9.88516 11.435 9.60901 11.435H1.5V1.5H29.3019V11.435H21.1478C20.8717 11.435 20.6478 11.6589 20.6478 11.935V36.5H10.109V22.7841ZM10.6779 37.5L16.9726 45.455H27.2361L20.9415 37.5H10.6779ZM21.6478 36.7811L27.7694 44.5174L27.7694 21.1089L21.6478 13.3727V36.7811ZM22.181 12.435H29.5595L35.8697 20.435L28.5113 20.435L22.181 12.435ZM28.7694 22.3727L28.7694 45.7812L34.891 53.5173V30.1428C34.8815 30.122 34.8734 30.1004 34.8667 30.0782L28.7694 22.3727ZM35.6329 29.435L29.3026 21.435L36.6585 21.435L42.9688 29.435H35.6329ZM43.5 28.4938V19.1735L37.3784 11.4127V20.733L43.5 28.4938ZM36.3784 19.4652V10.1449L30.3019 2.44124V11.7615L36.3784 19.4652ZM34.3934 54.5L28.0274 46.455H17.7639L24.1298 54.5H34.3934ZM2.0353 12.435L9.10901 21.3459V12.435H2.0353Z" fill="#00165F"/>
</svg>
