<?xml version="1.0" encoding="utf-8"?>
<!-- Generator: Adobe Illustrator 19.0.0, SVG Export Plug-In . SVG Version: 6.00 Build 0)  -->
<svg version="1.1" id="Calque_1" xmlns="http://www.w3.org/2000/svg" xmlns:xlink="http://www.w3.org/1999/xlink" x="0px" y="0px"
	 viewBox="-272 205.7 307 185.2" style="enable-background:new -272 205.7 307 185.2;" xml:space="preserve">
<style type="text/css">
	.st0{fill:#FFFFFF;}
</style>
<g>
	<path class="st0" d="M-125.4,318.7l-3.3-3.3h-10.5l-0.9,0.9v24.6l0.9,0.9h10.5l3.3-3.3v-8l-1.7-1.7l1.7-1.8V318.7z M-128.5,337.1
		l-1.5,1.5h-5.4l-1.5-1.5v-5.5l1.5-1.5h5.4l1.5,1.5V337.1z M-128.5,325.5l-1.5,1.5h-5.4l-1.5-1.5V320l1.5-1.5h5.4l1.5,1.5V325.5z"/>
	<path class="st0" d="M-108.5,341.7l3.3-3.3v-19.6l-3.3-3.3h-8l-3.3,3.3v19.6l3.3,3.3H-108.5z M-116.7,320l1.5-1.5h5.4l1.5,1.5v10.6
		l-8.5-8.5L-116.7,320L-116.7,320z M-116.7,326.5l8.5,8.5v2.1l-1.5,1.5h-5.4l-1.5-1.5L-116.7,326.5L-116.7,326.5z"/>
	<path class="st0" d="M-88.2,341.7l3.3-3.3v-22.1l-0.9-0.9h-1.4l-0.9,0.9v20.8l-1.5,1.5h-5.4l-1.5-1.5v-20.8l-0.9-0.9h-1.4l-0.9,0.9
		v22.1l3.3,3.3H-88.2z"/>
	<path class="st0" d="M-73.4,318.5v22.3l0.9,0.9h1.4l0.9-0.9v-22.3h4.9l0.9-0.9v-1.4l-0.9-0.9h-12.9l-0.9,0.9v1.4l0.9,0.9H-73.4z"/>
	<path class="st0" d="M-45.1,341.7l0.9-0.9v-1.4l-0.9-0.9h-5v-20.1h5l0.9-0.9v-1.4l-0.9-0.9h-13l-0.9,0.9v1.4l0.9,0.9h5v20.1h-5
		l-0.9,0.9v1.4l0.9,0.9H-45.1z"/>
	<path class="st0" d="M-35.3,315.3l-3.3,3.3v15.4l3.3,3.3h4.8l4.4,4.2h1.2l1-1v-1.2l-0.1-0.1l-2.6-2.5l2.7-2.7v-15.4l-3.3-3.3H-35.3
		z M-27,332.9l-1.5,1.5h-5.4l-1.5-1.5V320l1.5-1.5h5.4l1.5,1.5V332.9z"/>
	<path class="st0" d="M-5.9,315.4l-0.8,0.9v20.8l-1.6,1.5h-5.4l-1.5-1.5v-20.8l-0.9-0.9h-1.4l-0.9,0.9v22.1l3.3,3.3h8l3.3-3.3v-22.1
		l-0.9-0.9H-5.9z"/>
	<path class="st0" d="M2.9,315.3L2,316.2v24.6l0.9,0.9h12.9l0.9-0.9v-1.4l-0.9-0.9H6.6l-1.5-1.5v-5.5l1.5-1.5h3.7l1-0.9v-1.4l-1-0.9
		H6.6l-1.5-1.5V320l1.5-1.5h9.2l0.9-0.9v-1.4l-0.9-0.9H2.9z"/>
	<path class="st0" d="M-127.7,353.6l-0.9,0.9v9.2l-1.5,1.6h-5.4l-1.6-1.6v-9.2l-0.8-0.9h-1.4l-0.9,0.9v24.6l0.9,0.9h1.4l0.8-0.9
		v-9.2l1.6-1.6h5.4l1.5,1.6v9.2l0.9,0.9h1.4l0.9-0.9v-24.6l-0.9-0.9H-127.7z"/>
	<path class="st0" d="M-116.7,375.4v-10.6l8.5,8.5v2.1l-1.5,1.5h-5.4L-116.7,375.4z M-116.7,360.4v-2.1l1.5-1.5h5.4l1.5,1.5v10.6
		L-116.7,360.4z M-116.4,353.6l-3.3,3.3v19.6l3.3,3.3h8l3.3-3.3V357l-3.3-3.3H-116.4z"/>
	<path class="st0" d="M-98.6,353.6l-0.9,0.9v1.4l0.9,0.9h4.9v22.3l0.9,0.9h1.3l1-0.9v-22.3h4.9l0.9-0.9v-1.4l-0.9-0.9H-98.6z"/>
	<path class="st0" d="M-78.2,353.6l-0.9,0.9v24.6l0.9,0.9h12.9l0.9-0.9v-1.4l-0.9-0.9h-9.2l-1.6-1.5v-5.5l1.6-1.6h3.7l0.9-0.8v-1.4
		l-0.9-0.9h-3.7l-1.6-1.6v-5.4l1.6-1.6h9.2l0.9-0.9v-1.3l-0.9-0.9H-78.2z"/>
	<path class="st0" d="M-57.9,353.6l-0.9,0.9v22.1l3.3,3.4h8l3.3-3.4V374l-0.8-0.9h-1.4l-1,0.9v1.4l-1.5,1.5h-5.4l-1.6-1.5l0.1-20.9
		l-1-0.9H-57.9z"/>
	<path class="st0" d="M-123.8,271.4c0-0.1,0-0.1,0-0.2c0-0.1,0-0.1,0-0.2c0-0.1,0-0.1-0.1-0.2c0,0,0-0.1-0.1-0.1
		c0-0.1-0.1-0.1-0.1-0.2l-42.2-53.4c0,0,0,0-0.1-0.1c-0.1-0.1-0.1-0.1-0.2-0.2l-0.1-0.1c-0.1,0-0.1-0.1-0.2-0.1c0,0-0.1,0-0.1-0.1
		c-0.1,0-0.1-0.1-0.2-0.1h-0.1c-0.1,0-0.1,0-0.2,0h-0.1h-0.1h-85.3c-0.9,0-1.6,0.7-1.6,1.6v32.4c0,0.2,0,0.3,0.1,0.5
		c0.1,0.2,0.2,0.3,0.3,0.4l25.1,31.9v41.5c0,0.2,0,0.4,0.1,0.6c0.1,0.2,0.2,0.3,0.3,0.3l42.1,53.4c0,0,0,0.1,0.1,0.1
		c0.2,0.2,0.3,0.3,0.5,0.3c0.2,0.1,0.3,0.2,0.6,0.2h0.1h34.2c0.2,0,0.3,0,0.5-0.1c0.2-0.1,0.3-0.2,0.5-0.3c0.2-0.2,0.3-0.3,0.3-0.5
		c0.1-0.2,0.2-0.4,0.2-0.6v-0.1v-72.8h24.1c0.2,0,0.3,0,0.5-0.1c0.1,0,0.2-0.1,0.3-0.2c0.1,0,0.1-0.1,0.2-0.1
		c0.1-0.1,0.2-0.2,0.3-0.3c0,0,0,0,0.1-0.1c0.1-0.2,0.2-0.3,0.2-0.4v-0.1v-0.1V304v-32.4c0,0,0,0,0-0.1
		C-123.8,271.4-123.8,271.4-123.8,271.4z M-144.9,276.8v-27.4l18,22.8v27.3L-144.9,276.8z M-191.6,255l18,22.8v69.4l-18-22.8V255z
		 M-189.9,252.1h21.6l18.6,23.6h-21.6L-189.9,252.1z M-166,222.7l18,22.8v27.4l-18-22.8V222.7z M-228.9,278.3l-20.7-26.2h20.7V278.3
		z M-227.3,249h-23.9v-29.3h82.1V249h-24.1c-0.1,0-0.2,0-0.3,0c-0.1,0-0.2,0.1-0.3,0.1c-0.1,0-0.2,0.1-0.3,0.2c0,0-0.1,0-0.1,0.1
		c-0.1,0-0.1,0.1-0.1,0.1c-0.1,0.1-0.1,0.2-0.2,0.3c-0.1,0.1-0.1,0.2-0.2,0.3c0,0.1-0.1,0.2-0.1,0.3c0,0.1,0,0.2,0,0.3v0.1v72.7
		h-31.2v-40.5v-32.3C-225.8,249.7-226.5,249-227.3,249z M-193.9,326.5l18.6,23.6h-30.3l-18.6-23.6H-193.9z M-184.4,376.9l-18.6-23.6
		h30.3l18.6,23.6H-184.4z M-170.5,351.1v-69.4l18,22.8v69.4L-170.5,351.1z M-150.3,302.4l-18.6-23.6h21.6l18.6,23.6H-150.3z"/>
	<path class="st0" d="M-98,272.1l3.4,12.1l12.6-0.5l-10.5,7l4.4,11.8l-9.9-7.8l-9.9,7.8l4.4-11.8l-10.5-7l12.6,0.5L-98,272.1z"/>
	<path class="st0" d="M-56,272.1l3.4,12.1l12.6-0.5l-10.5,7l4.4,11.8l-9.9-7.8l-9.9,7.8l4.4-11.8l-10.5-7l12.6,0.5L-56,272.1z"/>
	<path class="st0" d="M-14,272.1l3.4,12.1L2,283.7l-10.5,7l4.4,11.8l-9.9-7.8l-9.9,7.8l4.4-11.8l-10.5-7l12.6,0.5L-14,272.1z"/>
</g>
</svg>
